<?xml version="1.0" encoding="utf-8"?>
<!-- Generator: Adobe Illustrator 20.1.0, SVG Export Plug-In . SVG Version: 6.00 Build 0)  -->
<svg version="1.1" id="Isolation_Mode" xmlns="http://www.w3.org/2000/svg" xmlns:xlink="http://www.w3.org/1999/xlink" x="0px"
	 y="0px" viewBox="0 0 80 80" style="enable-background:new 0 0 80 80;" xml:space="preserve">
<style type="text/css">
	.st0{fill-rule:evenodd;clip-rule:evenodd;fill:#096AAC;}
	.st1{fill:#FFFFFF;}
</style>
<g>
	<path class="st0" d="M74.6,20L74.6,20L74.6,20c-0.7-1.3-1.8-2.4-2.9-3.1L44.1,1c-2.3-1.3-6-1.3-8.2,0L8.3,16.9
		c-2.3,1.3-4.1,4.5-4.1,7.1l0,31.9c0,1.3,0.5,2.8,1.2,4.1c0.7,1.3,1.8,2.4,2.9,3.1L35.9,79c2.3,1.3,6,1.3,8.2,0l27.6-15.9
		c2.3-1.3,4.1-4.5,4.1-7.1V24.1C75.9,22.8,75.4,21.3,74.6,20z"/>
	<g>
		<path class="st1" d="M42.6,18.1c-0.5,2.6,0.1,4.8,2,6.6c1,1,2.2,1.7,3.6,2.2c1.8,0.5,3.5,0.3,5.2-0.5c0.1,0,0.1-0.1,0.2-0.1
			c0,0,0,0,0.1,0c-0.2,0.4-0.5,0.7-0.8,1c-1,0.9-2.1,1.4-3.5,1.4c-1.7,0.1-3.3-0.2-4.7-1.2c-1.8-1.2-3-3-3.4-5.1
			c-0.3-1.5,0.2-2.9,1.1-4.1C42.5,18.2,42.6,18.2,42.6,18.1C42.6,18.1,42.6,18.1,42.6,18.1z"/>
		<path class="st1" d="M54.2,39c-0.3,0.8-0.8,1.6-1.3,2.3c-2.3,2.8-5.2,4.5-8.8,5c-5.2,0.7-9.8-0.7-13.7-4.3
			c-2.5-2.3-4.2-5.1-4.9-8.4c-0.6-2.7-0.5-5.4,0.7-8c0.5-1.1,1.2-2.1,2-2.9c0.1-0.1,0.1-0.1,0.3-0.2c-0.2,0.8-0.3,1.5-0.4,2.3
			c-0.6,4.7,0.6,8.9,4,12.4c1.9,2,4.2,3.5,6.7,4.5c2,0.8,4.1,1.1,6.2,1.1c2-0.1,4-0.5,5.9-1.4C52,40.8,53.1,40,54.2,39
			C54.1,39.1,54.1,39,54.2,39z"/>
		<path class="st1" d="M36.1,19.8c-0.1,0.6-0.2,1.2-0.3,1.7c-0.4,4.1,0.9,7.5,4.2,10c1.5,1.1,3.1,2.1,4.9,2.5
			c3.2,0.9,6.2,0.4,8.9-1.6c0.2-0.2,0.4-0.4,0.7-0.6c0.2-0.2,0.4-0.4,0.7-0.6c-0.4,0.9-0.8,1.6-1.3,2.3c-1.4,1.8-3.4,2.8-5.6,3.3
			c-4,0.8-7.6-0.2-10.6-3c-1.5-1.4-2.7-3.1-3.3-5.1c-0.6-2.1-0.7-4.3,0.2-6.4c0.4-0.9,0.9-1.7,1.5-2.4C36,19.9,36.1,19.8,36.1,19.8z
			"/>
		<path class="st1" d="M30,59c-1,0-2,0-2.9,0c-1.3-0.1-2.2-1-2.3-2.3c-0.2-1.8,0.2-3.5,1.3-4.9c1-1.3,2.4-1.8,4-1.7
			c1.2,0.1,2.2,0.5,2.8,1.6c0.5,0.9,0.5,1.8,0.3,2.8c-0.2,0.9-0.5,1.7-0.8,2.6c-0.1,0.2-0.1,0.2,0.1,0.2c0.2,0,0.4,0,0.6,0
			c0.2,0,0.2,0.1,0.1,0.2c-0.1,0.5-0.2,0.9-0.3,1.4c0,0.2-0.1,0.2-0.3,0.2C31.7,59,30.9,59,30,59z M29.1,57.2c0.4,0,0.7,0,1,0
			c0.1,0,0.2,0,0.2-0.2c0.3-1.1,0.6-2.2,0.9-3.4c0.1-0.6-0.1-1.3-0.7-1.6c-0.9-0.5-2.5-0.3-3,0.9c-0.4,0.9-0.6,1.8-0.7,2.8
			c-0.1,0.7,0.3,1.2,1,1.3C28.3,57.3,28.7,57.2,29.1,57.2z"/>
		<path class="st1" d="M45.3,56.2c-0.7,0-1.4,0-2,0c-0.2,0-0.3,0.1-0.3,0.2c-0.1,0.5,0.1,0.8,0.6,0.8c0.4,0,0.7,0.1,1.1,0.1
			c0.7,0,1.5,0,2.2,0c0.2,0,0.2,0,0.2,0.2c-0.1,0.4-0.2,0.9-0.3,1.3c0,0.1-0.1,0.2-0.2,0.2c-1.3,0-2.5,0.1-3.8,0
			c-0.2,0-0.4,0-0.5-0.1c-1-0.2-1.5-1-1.4-2c0.1-1,0.3-1.9,0.6-2.8c0.3-1,1-1.6,1.9-2c1-0.4,2-0.5,3.1-0.1c1,0.3,1.4,1.1,1.4,2.1
			c0,0.7-0.2,1.3-0.3,1.9c0,0.2-0.1,0.1-0.2,0.1C46.7,56.2,46,56.2,45.3,56.2z M43.3,54.6c0.7,0,1.4,0,2.1,0c0.4,0,0.5-0.1,0.4-0.6
			c-0.1-0.3-0.3-0.4-0.5-0.5C44.4,53.3,43.7,53.7,43.3,54.6z"/>
		<path class="st1" d="M41,52c-0.5,2.3-1,4.5-1.4,6.8c0,0.2-0.1,0.3-0.3,0.3c-1.2,0-2.4,0-3.5,0c-0.2,0-0.4,0-0.6-0.1
			c-0.8-0.2-1.2-0.8-1.3-1.6c0-0.7,0.1-1.4,0.3-2.2c0.2-1,0.4-2,0.6-2.9c0-0.2,0.1-0.2,0.3-0.2c0.5,0,0.9,0,1.4,0
			c0.2,0,0.2,0,0.2,0.2c-0.1,1-0.4,1.9-0.6,2.9C36,55.7,36,56.3,36,57c0,0.2,0.1,0.3,0.3,0.3c0.5,0,1,0,1.5,0c0.2,0,0.2,0,0.3-0.2
			c0.3-1.6,0.7-3.2,1-4.8c0-0.2,0.1-0.3,0.3-0.3C40,52,40.5,52,41,52z"/>
		<path class="st1" d="M55.8,55.3c0.6-0.9,1.2-1.7,1.7-2.5c0.4-0.6,0.8-1.1,1.1-1.7c0.1-0.1,0.2-0.2,0.4-0.2c0.7,0,1.3,0,2.1,0
			c-0.1,0.3-0.3,0.5-0.4,0.7c-0.8,1.2-1.7,2.2-2.5,3.3c-0.9,1.2-1.7,2.4-2.2,3.9c0,0.1-0.1,0.2-0.2,0.2c-0.6,0-1.3,0-1.9,0
			c0.1-0.2,0.2-0.4,0.2-0.6c0.2-0.8,0.1-1.5-0.1-2.2c-0.2-0.6-0.4-1.2-0.5-1.8c0-0.2,0-0.3,0.2-0.3c0.5,0,1.1,0,1.6,0
			c0.2,0,0.3,0.1,0.3,0.2C55.6,54.7,55.7,54.9,55.8,55.3z"/>
		<path class="st1" d="M51.7,52c0.7,0,1.5,0,2.2,0c1.1,0,1.2,0.5,1.3,1.2c0.1,0.5,0.1,0.5-0.4,0.5c-1.2,0-2.4,0-3.5,0
			c-0.2,0-0.3,0.1-0.3,0.3c-0.3,1.6-0.7,3.2-1,4.8c0,0.2-0.1,0.2-0.3,0.2c-0.5,0-1,0-1.5,0C48,59,48,59,48,58.8
			c0.5-2.2,0.9-4.4,1.4-6.6c0-0.2,0.1-0.2,0.3-0.2C50.4,52,51.1,52,51.7,52C51.7,52,51.7,52,51.7,52z"/>
		<path class="st1" d="M23.1,54.1c0.3,0,0.5,0,0.8,0c0.1,0,0.2,0,0.1,0.1c-0.5,2-0.8,4-1.4,6c-0.2,0.8-0.6,1.3-1.5,1.5
			c-0.7,0.1-1.4,0.1-2.1,0c-0.1,0-0.1-0.1-0.1-0.2c0.1-0.5,0.2-0.9,0.3-1.4c0-0.1,0.1-0.2,0.2-0.2c0.2,0,0.4-0.1,0.6-0.1
			c0.2,0,0.3-0.1,0.4-0.3c0.5-0.8,0.7-1.7,0.8-2.6c0.2-0.9,0.3-1.9,0.6-2.8c0.1-0.2,0.1-0.2,0.3-0.2C22.6,54.2,22.8,54.1,23.1,54.1z
			"/>
		<path class="st1" d="M22.1,53.6c0.1-0.5,0.2-1,0.3-1.5c0-0.1,0.1-0.1,0.2-0.1c0.6,0,1.1,0,1.7,0c0.2,0,0.2,0.1,0.1,0.2
			c-0.1,0.4-0.2,0.8-0.3,1.3c0,0.1,0,0.2-0.2,0.2C23.4,53.6,22.8,53.6,22.1,53.6z"/>
	</g>
</g>
</svg>
