<?xml version="1.0" encoding="utf-8"?>
<!-- Generator: Adobe Illustrator 20.1.0, SVG Export Plug-In . SVG Version: 6.00 Build 0)  -->
<svg version="1.1" id="Isolation_Mode" xmlns="http://www.w3.org/2000/svg" xmlns:xlink="http://www.w3.org/1999/xlink" x="0px"
	 y="0px" viewBox="0 0 80 80" style="enable-background:new 0 0 80 80;" xml:space="preserve">
<style type="text/css">
	.st0{fill-rule:evenodd;clip-rule:evenodd;fill:#181818;}
	.st1{fill:#FFFFFF;}
</style>
<path class="st0" d="M74.6,20L74.6,20L74.6,20c-0.7-1.3-1.8-2.4-2.9-3.1L44.1,1c-2.3-1.3-6-1.3-8.2,0L8.3,16.9
	c-2.3,1.3-4.1,4.5-4.1,7.1l0,31.9c0,1.3,0.5,2.8,1.2,4.1c0.7,1.3,1.8,2.4,2.9,3.1L35.9,79c2.3,1.3,6,1.3,8.2,0l27.6-15.9
	c2.3-1.3,4.1-4.5,4.1-7.1V24.1C75.9,22.8,75.4,21.3,74.6,20z"/>
<g>
	<path class="st1" d="M15,43.2c0-0.9-0.6-1.9-2.3-2v-2.3c1.7-0.1,2.3-1.1,2.3-2c0-1.7-0.3-2.7-0.3-4.7c0-2.9,1.1-3.9,3.5-3.9h6.4
		v2.1h-5.2c-1.1,0-1.5,0.4-1.5,1.9c0,1.5,0.1,2.8,0.1,4.4c0,2.1-0.7,2.9-2,3.2V40c1.3,0.3,2,1.1,2,3.2c0,1.7-0.1,2.9-0.1,4.4
		c0,1.5,0.3,1.9,1.5,1.9h0.5v2.1h-1.7c-2.4,0-3.5-0.9-3.5-3.9C14.7,45.8,15,44.8,15,43.2z M20.6,28.5h4v15c0,0.9,0.4,1.1,0.7,1.1
		c0.1,0,0.3,0,0.5-0.1l0.5,2.9c-0.5,0.2-1.1,0.3-2,0.3c-2.7,0-3.7-1.8-3.7-4.5V28.5z M31.9,33.7c3.8,0,5.7,2.8,5.7,6.5
		c0,0.7-0.1,1.3-0.1,1.7h-8.2c0.3,2.1,1.7,2.9,3.5,2.9c1,0,1.9-0.3,2.9-0.9l1.3,2.4c-1.4,0.9-3.2,1.5-4.8,1.5
		c-3.9,0-6.8-2.6-6.8-7.1C25.4,36.4,28.6,33.7,31.9,33.7z M34.2,39.4c0-1.5-0.7-2.7-2.3-2.7c-1.3,0-2.3,0.9-2.6,2.7H34.2z
		 M39.9,43.5c1.2,0.9,2.3,1.4,3.5,1.4c1.2,0,1.7-0.5,1.7-1.1c0-0.9-1.3-1.3-2.7-1.9c-1.6-0.6-3.5-1.7-3.5-3.9c0-2.5,2.1-4.2,5.1-4.2
		c2.1,0,3.6,0.9,4.7,1.7l-1.8,2.4c-1-0.7-1.9-1.1-2.9-1.1c-1,0-1.5,0.4-1.5,1.1c0,0.9,1.3,1.2,2.7,1.7c1.7,0.6,3.7,1.6,3.7,4.1
		S46.9,48,43.3,48c-1.7,0-3.8-0.7-5.1-1.9L39.9,43.5L39.9,43.5z M50.8,43.5c1.2,0.9,2.3,1.4,3.5,1.4c1.2,0,1.7-0.5,1.7-1.1
		c0-0.9-1.3-1.3-2.7-1.9c-1.6-0.6-3.5-1.7-3.5-3.9c0-2.5,2.1-4.2,5.1-4.2c2.1,0,3.6,0.9,4.7,1.7l-1.8,2.4c-1-0.7-1.9-1.1-2.9-1.1
		c-1,0-1.5,0.4-1.5,1.1c0,0.9,1.3,1.2,2.6,1.7c1.7,0.6,3.7,1.6,3.7,4.1S57.7,48,54.1,48c-1.7,0-3.8-0.7-5.1-1.9L50.8,43.5L50.8,43.5
		z M60.6,49.5c1.1,0,1.5-0.4,1.5-1.9c0-1.5-0.1-2.8-0.1-4.4c0-2.1,0.7-2.9,2-3.2v-0.1c-1.3-0.3-2-1.1-2-3.2c0-1.6,0.1-3,0.1-4.4
		c0-1.5-0.3-1.9-1.5-1.9h-0.5v-2.1h1.7c2.4,0,3.5,0.9,3.5,3.9c0,1.9-0.3,2.9-0.3,4.7c0,0.9,0.6,1.9,2.3,2v2.3
		c-1.7,0.1-2.3,1.1-2.3,2c0,1.7,0.3,2.7,0.3,4.7c0,2.9-1.1,3.9-3.5,3.9h-1.7v-2.1L60.6,49.5z"/>
</g>
</svg>
