<?xml version="1.0" encoding="utf-8"?>
<!-- Generator: Adobe Illustrator 20.1.0, SVG Export Plug-In . SVG Version: 6.00 Build 0)  -->
<svg version="1.1" id="Isolation_Mode" xmlns="http://www.w3.org/2000/svg" xmlns:xlink="http://www.w3.org/1999/xlink" x="0px"
	 y="0px" viewBox="0 0 80 80" style="enable-background:new 0 0 80 80;" xml:space="preserve">
<style type="text/css">
	.st0{fill-rule:evenodd;clip-rule:evenodd;fill:#191919;}
	.st1{fill:#FFFFFF;}
</style>
<g>
	<path class="st0" d="M74.6,20L74.6,20L74.6,20c-0.7-1.3-1.8-2.4-2.9-3.1L44.1,1c-2.3-1.3-6-1.3-8.2,0L8.3,16.9
		c-2.3,1.3-4.1,4.5-4.1,7.1l0,31.9c0,1.3,0.5,2.8,1.2,4.1c0.7,1.3,1.8,2.4,2.9,3.1L35.9,79c2.3,1.3,6,1.3,8.2,0l27.6-15.9
		c2.3-1.3,4.1-4.5,4.1-7.1V24.1C75.9,22.8,75.4,21.3,74.6,20z"/>
	<g>
		<path class="st1" d="M54.3,49.6c0,0-0.1,0-0.1,0c-1.2,0-2.4,0-3.6,0c-0.1,0-0.1,0-0.2-0.1c-0.3-0.8-0.7-1.7-1-2.5
			c0-0.1-0.1-0.1-0.2-0.1c-1.9,0-3.9,0-5.8,0c-0.1,0-0.1,0-0.2,0.1c-0.3,0.8-0.6,1.7-1,2.5c0,0.1-0.1,0.1-0.2,0.1
			c-1.2,0-2.4,0-3.6,0c0,0-0.1,0-0.2,0c0.1-0.2,0.1-0.4,0.2-0.5c1.3-3,2.6-5.9,3.9-8.9c0.5-1.2,1.1-2.4,1.6-3.6
			c0-0.1,0.1-0.1,0.2-0.1c1.4,0,2.7,0,4.1,0c0.1,0,0.1,0,0.2,0.1c0.7,1.6,1.4,3.3,2.2,4.9c0.8,1.9,1.7,3.8,2.5,5.8
			C53.6,48,53.9,48.8,54.3,49.6C54.3,49.6,54.3,49.6,54.3,49.6z M46.4,39.3c-0.7,1.7-1.4,3.5-2.1,5.2c1.4,0,2.7,0,4.1,0
			C47.7,42.8,47.1,41.1,46.4,39.3z"/>
		<path class="st1" d="M25.8,49.6c-0.1,0-0.1,0-0.1,0c-1.2,0-2.4,0-3.6,0c-0.1,0-0.1,0-0.2-0.1c-0.3-0.8-0.6-1.7-1-2.5
			c0-0.1-0.1-0.1-0.2-0.1c-1.9,0-3.9,0-5.8,0c-0.1,0-0.1,0-0.2,0.1c-0.3,0.8-0.7,1.7-1,2.5c0,0.1,0,0.1-0.1,0.1c-1.2,0-2.5,0-3.7,0
			c0,0,0,0-0.1,0c0.1-0.3,0.3-0.7,0.4-1c0.7-1.6,1.4-3.2,2.1-4.8c0.9-2.1,1.8-4.2,2.8-6.3c0.1-0.3,0.3-0.7,0.4-1
			c0-0.1,0.1-0.1,0.2-0.1c1.4,0,2.7,0,4.1,0c0.1,0,0.1,0,0.2,0.1c0.8,1.9,1.7,3.8,2.5,5.7c1.1,2.4,2.1,4.8,3.2,7.3
			C25.8,49.5,25.8,49.6,25.8,49.6z M17.9,39.3c-0.7,1.8-1.4,3.5-2.1,5.2c1.4,0,2.7,0,4.1,0C19.3,42.8,18.6,41.1,17.9,39.3z"/>
		<path class="st1" d="M27.3,43.6c-1.7-1.7-3.4-3.4-5-5c0.5-0.5,1.1-1.1,1.6-1.6c0.6,0.6,1.2,1.2,1.8,1.8c0,0,0,0,0,0
			c0,0,0-0.1,0-0.1c0-3.2,0-6.4,0-9.5c0-0.7,0.1-1.5,0.3-2.2c0.4-1.2,1.2-1.9,2.3-2.3c0.6-0.2,1.2-0.3,1.8-0.3c0.8,0,1.7,0,2.5,0
			c0.9,0,1.9,0.1,2.8,0.3c0.8,0.2,1.6,0.6,2.1,1.3c0.5,0.5,0.7,1.1,0.8,1.8c0.1,0.6,0.1,1.3,0.1,1.9c0,0,0,0,0,0c-1.2,0-2.4,0-3.6,0
			c0,0,0-0.1,0-0.1c0-0.4,0-0.8-0.1-1.3c-0.1-0.8-0.8-1.5-1.6-1.5c-0.4,0-0.8,0-1.2,0c-0.5,0-0.9,0-1.4,0c-1.1,0.1-1.7,0.6-1.9,1.7
			c-0.1,0.3-0.1,0.6-0.1,0.9c0,3.1,0,6.2,0,9.2c0,0.1,0,0.1,0,0.2c0.6-0.6,1.2-1.2,1.8-1.9c0.6,0.6,1.1,1.1,1.7,1.7
			C30.7,40.3,29,42,27.3,43.6z"/>
		<path class="st1" d="M31.8,35.9c1.7-1.7,3.4-3.4,5-5c1.7,1.7,3.4,3.4,5,5c-0.5,0.5-1.1,1.1-1.6,1.6c-0.6-0.6-1.2-1.2-1.8-1.8
			c0,0,0,0,0,0c0,0.1,0,0.1,0,0.2c0,3.1,0,6.2,0,9.3c0,0.7,0,1.4-0.2,2c-0.3,1.4-1.2,2.2-2.5,2.6c-0.8,0.2-1.5,0.3-2.3,0.3
			c-0.8,0-1.5,0-2.3,0c-1,0-2-0.1-2.9-0.5c-0.9-0.3-1.6-0.8-2-1.7c-0.3-0.5-0.5-1-0.5-1.6c0-0.5,0-1-0.1-1.5c0,0,0,0,0-0.1
			c1.2,0,2.4,0,3.6,0c0,0.1,0,0.1,0,0.2c0,0.4,0,0.9,0.1,1.3c0.1,0.9,0.8,1.5,1.7,1.5c0.7,0,1.4,0,2.2,0c0.4,0,0.9-0.1,1.3-0.3
			c0.5-0.3,0.7-0.8,0.8-1.4c0.1-0.3,0.1-0.6,0.1-0.9c0-3.1,0-6.2,0-9.3c0-0.1,0-0.1,0-0.2c-0.6,0.6-1.3,1.3-1.9,1.9
			C32.9,37,32.3,36.4,31.8,35.9z"/>
		<path class="st1" d="M62.4,40.6c0.2-0.3,0.4-0.6,0.7-0.9c0.7-1,1.4-2,2.2-3.1c0,0,0.1-0.1,0.2-0.1c1.4,0,2.8,0,4.1,0
			c0,0,0,0,0.1,0c-1.7,2.1-3.4,4.2-5.1,6.4c1.9,2.3,3.7,4.5,5.6,6.8c0,0-0.1,0-0.1,0c-1.4,0-2.8,0-4.2,0c-0.1,0-0.1,0-0.2-0.1
			c-1-1.4-2-2.8-3-4.2c0,0-0.1-0.1-0.1-0.1c-0.2,0.3-0.4,0.5-0.6,0.8c-0.9,1.2-1.7,2.4-2.6,3.5c0,0-0.1,0.1-0.1,0.1
			c-1.4,0-2.8,0-4.3,0c0,0,0,0-0.1,0c0.2-0.2,0.3-0.4,0.5-0.6c1-1.2,2-2.4,3-3.6c0.7-0.8,1.4-1.7,2-2.5c0.1-0.1,0.1-0.2,0-0.3
			c-0.7-0.8-1.3-1.7-2-2.5c-0.9-1.2-1.9-2.3-2.8-3.5c-0.1-0.1-0.1-0.2-0.2-0.3c0.1,0,0.1,0,0.1,0c1.3,0,2.6,0,4,0
			c0.1,0,0.2,0,0.3,0.1c0.9,1.2,1.7,2.5,2.6,3.7C62.3,40.4,62.3,40.5,62.4,40.6z"/>
	</g>
</g>
</svg>
