<?xml version="1.0" encoding="utf-8"?>
<!-- Generator: Adobe Illustrator 20.1.0, SVG Export Plug-In . SVG Version: 6.00 Build 0)  -->
<svg version="1.1" id="Isolation_Mode" xmlns="http://www.w3.org/2000/svg" xmlns:xlink="http://www.w3.org/1999/xlink" x="0px"
	 y="0px" viewBox="0 0 80 80" style="enable-background:new 0 0 80 80;" xml:space="preserve">
<style type="text/css">
	.st0{fill-rule:evenodd;clip-rule:evenodd;fill:#D83F26;}
	.st1{fill:#FFFFFF;}
</style>
<g>
	<path class="st0" d="M75.8,24.1c0-1.3-0.5-2.8-1.2-4.1l0,0l0,0c-0.7-1.3-1.8-2.4-2.9-3.1L44.1,1c-2.3-1.3-6-1.3-8.2,0L8.3,16.9
		c-2.3,1.3-4.1,4.5-4.1,7.1v31.9c0,1.3,0.5,2.8,1.2,4.1l0,0l0,0c0.7,1.3,1.8,2.4,2.9,3.1L35.9,79c2.3,1.3,6,1.3,8.2,0l27.6-15.9
		c2.3-1.3,4.1-4.5,4.1-7.1L75.8,24.1z"/>
	<g>
		<path class="st1" d="M26.5,42c1.8-0.1,3.3,0.3,4.8,0.5c2.6,0.3,5.2,0.7,7.8,1.1c0.6,0.1,0.8,0,0.8-0.7c0-5.8,0-11.6,0-17.3
			c0-0.7-0.2-0.7-0.8-0.6c-2.6,0.6-5.1,1.3-7.7,1.8c-0.7,0.2-0.9,0.5-0.9,1.2c0,3.6,0,7.3,0,10.9c0,0.7-0.1,1-0.8,1.2
			c-1.3,0.4-2.6,1-3.9,1.5c0-2.7,0-5.3,0-8c0-2.3,0-4.6,0-6.9c0-0.6,0.1-0.9,0.8-1.2c4.2-1.6,8.5-3.2,12.7-4.8
			c0.4-0.1,0.7-0.2,1.2-0.1c2.2,0.6,4.3,1.3,6.5,1.9c0.6,0.2,0.7,0.4,0.7,1c0,6.8,0,13.5,0,20.3c0,0.7-0.3,0.9-0.8,1
			c-2.1,0.6-4.2,1.2-6.3,1.7c-0.4,0.1-0.7,0.2-1.1,0C35.2,45.2,31,43.6,26.5,42z"/>
		<path class="st1" d="M24.4,54.9c0,2.6-1.5,4.2-4,4.2c-2.3,0-3.8-1.6-3.8-4.1c0-2.6,1.6-4.3,3.9-4.3C22.9,50.7,24.4,52.4,24.4,54.9
			z M23.4,54.9c0-2-0.9-3.2-2.5-3.4c-1.4-0.2-2.8,0.8-3.1,2.4c-0.6,2.4,0.9,4.4,3.1,4.3C22.5,58.1,23.4,56.9,23.4,54.9z"/>
		<path class="st1" d="M29.3,56.5c0-0.4-0.1-0.9,0-1.3c0.2-1-0.2-1.2-1.2-1.2c-0.9,0-1.2,0.3-1.1,1.2c0.1,1.1,0,2.2,0,3.2
			c0,0.3,0.1,0.6-0.4,0.6C26,59,26,58.7,26,58.3c0-1.2,0-2.4,0-3.6c0-0.4,0-0.8-0.6-0.7c-0.2,0-0.4-0.1-0.4-0.3
			c0-0.2,0.1-0.4,0.3-0.4c0.9,0.1,0.7-0.5,0.7-1c0.1-1.2,0.8-2,1.9-1.9c0.3,0,0.6-0.1,0.7,0.4c0,0.5-0.3,0.4-0.6,0.4
			c-0.8,0.1-1.5,1.4-1,1.9c0.5,0.5,1.3,0.2,1.9,0.2c0.5,0,0.3-0.5,0.3-0.7c0.1-1.4,0.8-2.2,2-2.2c0.3,0,0.5,0,0.5,0.4
			c0,0.4-0.2,0.4-0.5,0.4c-0.8,0.1-1.4,1.1-1.1,1.8c0.2,0.3,0.5,0.2,0.7,0.2c0.3,0,0.6-0.1,0.7,0.4c0,0.5-0.3,0.4-0.6,0.4
			c-0.8-0.1-0.8,0.3-0.8,0.9c0,1.1,0,2.3,0,3.4c0,0.3,0.1,0.7-0.4,0.7c-0.6,0-0.4-0.4-0.4-0.7C29.3,57.7,29.3,57.1,29.3,56.5z"/>
		<path class="st1" d="M53.6,54.8c0.4-0.3,0.8-0.8,1.3-0.8c1.3-0.2,2.4,0.4,2.7,1.6c0.4,1.4-0.2,2.9-1.4,3.4
			c-1.3,0.5-2.6,0.1-3.2-1.2c-0.8-2-0.7-4,0.5-5.8c0.7-1,2.1-1.5,3.2-1.2c0.4,0.1,0.6,0.3,0.5,0.7c-0.1,0.5-0.4,0.1-0.6,0.1
			c-1.3-0.2-2.2,0.2-2.7,1.5c-0.2,0.5-0.3,1.1-0.5,1.6C53.5,54.7,53.5,54.7,53.6,54.8z M55.2,54.7c-0.9,0-1.6,0.7-1.6,1.7
			c0,1.1,0.7,1.9,1.6,2c0.9,0,1.6-0.8,1.6-1.9C56.8,55.4,56.1,54.7,55.2,54.7z"/>
		<path class="st1" d="M58.8,57.9c0.7,0.3,1.4,0.6,2.2,0.4c0.9-0.2,1.4-0.8,1.4-1.7c0-0.9-0.5-1.4-1.4-1.6c-0.3-0.1-0.6-0.1-0.9-0.1
			c-1,0.2-1.2-0.2-1.1-1.1c0.1-0.9-0.1-2.1,0.4-2.7c0.5-0.6,1.7-0.1,2.6-0.2c0.1,0,0.3,0,0.4,0c0.3,0,0.6-0.1,0.6,0.4
			c0,0.5-0.4,0.4-0.7,0.4c-0.5,0-1.1,0-1.6,0c-0.5,0-0.8,0.1-0.7,0.6c0,0.3,0,0.5-0.1,0.8c-0.2,0.8,0.1,1,0.9,1c2,0,3,1.4,2.5,3.2
			c-0.4,1.5-2.9,2.4-4.2,1.6C58.5,58.6,58.7,58.2,58.8,57.9z"/>
		<path class="st1" d="M44,57.8c0.2,0.5,0.1,0.8-0.3,1c-0.9,0.5-2.7,0.3-3.4-0.3c-0.9-0.8-1.1-2.7-0.5-4c0.6-1.1,1.6-1.6,3-1.4
			c1.1,0.2,2,1.7,1.8,2.8c-0.1,0.4-0.3,0.4-0.6,0.4c-0.9,0-1.9,0-2.8,0c-0.8,0-0.7,0.4-0.6,0.9c0.3,1,1.5,1.4,2.7,1
			C43.4,58.1,43.7,57.9,44,57.8z M41.9,55.5c0.2,0,0.3,0,0.5,0c0.3-0.1,0.9,0.3,1-0.3c0.1-0.6-0.2-1-0.8-1.3
			c-0.5-0.3-1.1-0.2-1.5,0.2c-0.4,0.3-0.8,0.7-0.7,1.2c0.1,0.5,0.7,0.1,1,0.2C41.6,55.6,41.8,55.5,41.9,55.5z"/>
		<path class="st1" d="M47,57.8c0.7,0.3,1.4,0.6,2.2,0.5c0.8-0.2,1.4-0.6,1.5-1.5c0-1-0.6-1.4-1.4-1.5c-0.3-0.1-0.6,0-0.9-0.1
			c-0.3,0-0.6,0.1-0.6-0.4c0-0.5,0.3-0.4,0.6-0.4c0.2,0,0.4,0,0.6,0c1-0.1,1.5-0.8,1.4-1.6c-0.1-0.8-0.7-1.2-1.7-1.2
			c-0.5,0-0.9,0.3-1.4,0.4c-0.3-1,0.5-1,1-1.1c1.3-0.3,2.5,0.2,2.9,1.1c0.4,1,0,2-1.2,2.8c0.7,0.3,1.3,0.7,1.6,1.4
			c0.4,1.2-0.5,2.6-1.9,2.9c-0.6,0.1-1.3,0.1-1.9,0C47.1,58.9,46.7,58.6,47,57.8z"/>
		<path class="st1" d="M38.6,54.1c-2.2-0.6-3.6,0.4-3.3,2.4c0.2,1.4,1.2,2.1,2.6,1.7c0.2,0,0.5-0.6,0.7,0c0.1,0.4-0.1,0.6-0.5,0.7
			c-1.6,0.6-3.3-0.2-3.7-1.8c-0.5-1.8,0.5-3.7,2.1-4c0.5-0.1,0.9,0,1.4,0C38.6,53.1,38.8,53.5,38.6,54.1z"/>
		<path class="st1" d="M33.4,56.1c0,0.7,0,1.5,0,2.2c0,0.3,0.1,0.7-0.5,0.7c-0.5,0-0.4-0.3-0.4-0.6c0-1.5,0-3,0-4.6
			c0-0.3-0.1-0.6,0.4-0.6c0.6,0,0.5,0.4,0.5,0.7C33.4,54.6,33.4,55.3,33.4,56.1z"/>
		<path class="st1" d="M33,51.7c-0.4,0-0.6-0.2-0.6-0.5c0-0.4,0.2-0.6,0.5-0.7c0.3,0,0.6,0.2,0.6,0.5C33.6,51.4,33.3,51.6,33,51.7z"
			/>
	</g>
</g>
</svg>
