<?xml version="1.0" encoding="utf-8"?>
<!-- Generator: Adobe Illustrator 20.1.0, SVG Export Plug-In . SVG Version: 6.00 Build 0)  -->
<svg version="1.1" id="Isolation_Mode" xmlns="http://www.w3.org/2000/svg" xmlns:xlink="http://www.w3.org/1999/xlink" x="0px"
	 y="0px" viewBox="0 0 80 80" style="enable-background:new 0 0 80 80;" xml:space="preserve">
<style type="text/css">
	.st0{fill-rule:evenodd;clip-rule:evenodd;fill:#CF679B;}
	.st1{fill:#FFFFFF;}
</style>
<path class="st0" d="M74.6,20L74.6,20L74.6,20c-0.7-1.3-1.8-2.4-2.9-3.1L44.1,1c-2.3-1.3-6-1.3-8.2,0L8.3,16.9
	c-2.3,1.3-4.1,4.5-4.1,7.1l0,31.9c0,1.3,0.5,2.8,1.2,4.1c0.7,1.3,1.8,2.4,2.9,3.1L35.9,79c2.3,1.3,6,1.3,8.2,0l27.6-15.9
	c2.3-1.3,4.1-4.5,4.1-7.1V24.1C75.9,22.8,75.4,21.3,74.6,20z"/>
<path class="st1" d="M39.3,19.3c1,0.3,2.1,0.5,3.1,0.8c4.1,1.4,5.8,4.6,4.3,8.7c-1.7,4.7-5.3,7.4-10,8.8c-2.5,0.7-5.1,1-7.7,0.5
	c-1.5-0.3-2.8-1.1-3.6-2.4c-0.2-0.3-0.4-0.6-0.1-0.9c0.3-0.3,0.6,0.1,0.8,0.3c1.6,1.4,3.5,1.6,5.5,1.3C36.2,35.8,40.2,34,43,30
	c1.1-1.5,1.8-3.2,0.9-5c-0.9-1.8-2.8-2.1-4.5-2.3c-3.1-0.3-6.2,0.3-9.1,1.5c-4.2,1.7-8.2,3.8-11.4,7.2c-1.1,1.2-2,2.6-2.3,4.3
	c-0.4,2.6,0.9,4.4,2.6,5.9c1.8,1.6,3.9,2.9,5.6,4.6c0.3,0.3,0.6,0.3,1,0.1c2-1.3,4.5-2,6.1-4c0.7-0.9,1.7-1.4,2.7-1.8
	c1.7-0.6,2.7,0.1,2.8,1.9c0,0.4,0,0.8,0,1.2c1.9-0.2,2,0.6,1.6,1.8c-0.5,1.6-0.9,3.2-1.2,4.9c-0.1,0.4,0,0.8,0,1.3
	c0.5-0.3,0.6-0.8,0.8-1.2c1.7-3.7,3.6-7.3,4.8-11.2c0.1-0.4,0.4-0.7,0.8-0.7c0.3-0.1,0.7-0.1,1.1-0.1c1.6,0,1.7,0.1,1.3,1.6
	c-0.5,1.9-0.4,3.6,0.6,5.3c1.3-2.2,2.7-4.3,3.4-6.7c0.5-1.6,1.5-2.3,3.2-1.8c0.8,0.2,0.7,0.7,0.4,1.2c-0.7,1.9-0.6,3.7,0.3,5.6
	c0.3,0.6,0.6,0.8,1.3,0.5c2.3-0.9,4.7-1,7.1-0.4c2.4,0.7,3.9,2.3,4.8,4.6c0,0.7,0,1.4,0,2.1C67,51,66.6,52,65.5,52.4
	c-0.3,0.1-0.6,0.4-0.8,0.1c-0.3-0.3,0.2-0.5,0.4-0.6c1.6-1.4,1.8-3,0.6-4.6c-0.5-0.6-1-1.1-1.7-1.4c-2.4-1.1-4.9-1.3-7.5-0.6
	c-0.7,0.2-0.9,0.5-0.7,1.2c0.5,1.6,0,3-1.3,4.1c-0.8,0.7-1.7,1.2-2.7,1.5c-0.6,0.2-1.3,0.4-1.9-0.2c-0.5-0.5-0.5-1.2-0.3-1.9
	c0.4-1.6,1.4-2.8,2.5-3.9c0.2-0.2,0.7-0.4,0.5-0.7c-0.7-1.2-1-2.6-1.4-4c-1,1.6-1.8,3.1-2.7,4.5c-0.5,0.7-0.5,1.3-0.3,2.1
	c0.5,1.7,0.4,3.3-1,4.5c-1.2,1-2.5,1.6-4.1,1.7c-0.6,0-1.4,0.2-1.7-0.6c-0.3-0.7,0.2-1.1,0.6-1.6c1-1.3,2-2.5,3-3.7
	c0.2-0.2,0.5-0.4,0.3-0.7c-0.7-1.3-1.2-2.7-1.6-4.2c-1.4,3.2-2.9,6.3-4.5,9.2c-0.4,0.7-0.7,1.3-1.3,1.8c-1.1,1-2.1,0.8-2.5-0.7
	c-0.3-0.8-0.1-1.7-0.2-2.6c-0.6,1.2-1.1,2.3-1.7,3.4c-1.1,1.8-2.8,1.7-3.8-0.1c-0.8-1.5-1.2-3.2-0.9-4.9c0.1-1,0.3-1.9,0.5-3
	c-0.9,0.5-1.7,1-2.4,1.4c-0.5,0.2-0.5,0.5-0.3,0.9c1.3,3.9-0.1,8.1-3.4,10.5c-1,0.8-2.3,1.1-3.4,1.6c-1,0-2,0-3,0
	c-1.8-0.7-2.5-2.2-2.5-4c0-1.3,0.5-2.5,1.4-3.5c1.8-2.2,4.2-3.5,6.6-4.8c1.2-0.6,1.2-0.6,0.1-1.4c-3.7-2.7-7.8-5-9.8-9.5
	c0-0.9,0-1.7,0-2.6c0.2-0.1,0.2-0.3,0.3-0.4c0.8-2.5,2.4-4.6,4.4-6.3c4.4-4,9.5-6.5,15.2-8.1c1-0.3,2.1-0.3,3.1-0.7
	C36.5,19.3,37.9,19.3,39.3,19.3z M24.7,50.8c0-0.2,0-0.5,0-0.7c-0.1-1.2-0.2-1.3-1.2-0.7c-1.1,0.7-2.1,1.4-3.2,2.2
	c-1.2,0.9-2.2,2-2.6,3.4c-0.2,0.8-0.5,1.7,0.2,2.3c0.7,0.6,1.5,0.3,2.2,0.1C22.8,56.5,24.8,53.7,24.7,50.8z M31.4,50.1
	c0,0.1,0,0.5,0.1,0.8c0.1,0.5,0,1.1,0.6,1.2c0.5,0.1,0.7-0.6,0.9-1c1-2.2,1.9-4.4,2.6-6.8c0.2-0.7,0.7-1.6,0.1-2
	c-0.8-0.4-1.5,0.5-2,1.1C32.3,45.5,31.5,47.6,31.4,50.1z M53.7,47.7c0-0.3,0.1-0.7-0.3-0.8c-0.3-0.1-0.5,0.3-0.6,0.5
	c-0.6,0.7-1.1,1.5-1.3,2.4c-0.1,0.2-0.1,0.5,0.1,0.6c0.2,0.2,0.4,0,0.6-0.1C53.1,49.8,53.6,48.9,53.7,47.7z M46.3,49.1
	c-1,1.2-1.9,2.2-2.7,3.2C45,51.8,46,50.9,46.3,49.1z"/>
</svg>
